<svg width="60" height="25" viewBox="0 0 60 25" fill="none" xmlns="http://www.w3.org/2000/svg">
<path fill-rule="evenodd" clip-rule="evenodd" d="M39.4072 17.9762L43.1775 0H57.2643L56.3223 4.494H49.2765L48.8061 6.7417H54.7986L53.8566 11.2363H47.8635L47.3925 13.4821H54.4383L53.4952 17.9762H39.4072Z" fill="#1D3378"/>
<path fill-rule="evenodd" clip-rule="evenodd" d="M0 17.9758C12.519 11.9648 29.4606 8.13234 44.914 6.70474C49.0884 6.31884 53.2254 6.10324 58.983 6.10324C59.2073 6.10324 59.5816 6.02854 59.8808 5.95264L58.7194 11.5144C58.6564 11.8143 58.159 11.9648 57.7847 11.9648C22.4814 11.9648 1.34764 17.9764 1.34764 17.9764L0 17.9758Z" fill="#E11B22"/>
<path fill-rule="evenodd" clip-rule="evenodd" d="M17.9775 17.9762L21.7461 0.00119972H28.4896L32.5 8.165L34.2113 0.00119972L40.9536 0L37.1844 17.9762H30.4427L26.4954 9.5129L24.721 17.9762H17.9775Z" fill="#1D3378"/>
<path fill-rule="evenodd" clip-rule="evenodd" d="M11.5352 10.4867L13.7336 0H20.4752L17.8374 12.5831C17.0205 16.4781 13.9885 17.9762 9.96505 17.9762H4.99902L6.12975 12.5831H8.37815C10.0258 12.5831 11.2209 11.9841 11.5352 10.4867Z" fill="#1D3378"/>
<path d="M33.1373 23.9862L33.2819 23.0264H34.8056L34.9437 22.0122H33.4218L33.5259 21.2517H35.1005L35.2379 20.238H32.7916L32.1426 24.9999H34.7051L34.8456 23.9862H33.1373Z" fill="#1D3378"/>
<path d="M38.4522 20.238H37.4185L36.931 21.1056C36.8575 21.2385 36.7715 21.3965 36.6744 21.5808C36.599 21.3348 36.5572 21.1996 36.549 21.1715L36.2405 20.238H35.3563L36.1039 22.5771L34.7617 24.9999H35.8173L36.2488 24.234C36.3477 24.0551 36.4289 23.9061 36.4931 23.7846C36.5296 23.9108 36.5743 24.0592 36.6279 24.2304L36.871 24.9999H37.807L37.0641 22.7518L38.4522 20.238Z" fill="#1D3378"/>
<path d="M39.231 21.2397H39.5463C39.7961 21.2397 39.8526 21.2672 39.858 21.2702C39.8898 21.2876 39.9144 21.3181 39.9336 21.3612C39.9577 21.4138 39.9697 21.4856 39.9697 21.5754C39.9697 21.7172 39.9427 21.8488 39.8892 21.9661C39.8394 22.0774 39.7751 22.154 39.6928 22.2019C39.6448 22.2294 39.5067 22.2761 39.1241 22.2761H39.0893L39.231 21.2397ZM40.8326 21.4982C40.8326 21.2373 40.7936 21.0075 40.7161 20.8154C40.6339 20.6132 40.5186 20.4642 40.3726 20.3726C40.2291 20.2835 40.0375 20.238 39.8021 20.238H38.502L37.8564 24.9999H38.7218L38.9548 23.2843H39.2238C39.4941 23.2843 39.6766 23.273 39.7805 23.2502C39.9589 23.2119 40.1048 23.1533 40.2141 23.0779C40.3228 23.0019 40.4249 22.8906 40.5168 22.7482C40.6074 22.6064 40.6813 22.4257 40.7432 22.1947C40.8026 21.9697 40.8326 21.7357 40.8326 21.4982Z" fill="#1D3378"/>
<path d="M42.0731 21.2517H42.6138C42.8198 21.2517 42.8651 21.2893 42.8651 21.2893C42.9234 21.345 42.9532 21.4371 42.9532 21.5628C42.9532 21.6819 42.927 21.7974 42.8764 21.9063C42.8288 22.0092 42.7662 22.081 42.6852 22.1271C42.6376 22.154 42.5001 22.1989 42.113 22.1989H41.9463L42.0731 21.2517ZM43.1241 23.3298C43.0812 23.2185 43.0372 23.121 42.9907 23.0366C43.239 22.9493 43.4326 22.7901 43.5683 22.5615C43.7267 22.294 43.8071 21.9524 43.8071 21.5478C43.8071 21.2642 43.766 21.0177 43.6844 20.8136C43.5975 20.5982 43.4784 20.4456 43.3307 20.3607C43.186 20.2781 42.9961 20.238 42.7501 20.238H41.352L40.7119 24.9999H41.5705L41.8206 23.1365H41.9492C42.0898 23.1365 42.1374 23.1701 42.1493 23.1832C42.2029 23.2413 42.2857 23.3813 42.3798 23.7164C42.528 24.2477 42.6287 24.6445 42.6793 24.8946L42.7007 24.9999H43.6142L43.5725 24.8365C43.4087 24.1921 43.2581 23.6859 43.1241 23.3298Z" fill="#1D3378"/>
<path d="M46.3703 23.0264L46.5024 22.0122H45.0393L45.14 21.2517H46.6531L46.7858 20.238H44.434L43.8096 24.9999H46.2731L46.4081 23.9862H44.7658L44.9054 23.0264H46.3703Z" fill="#1D3378"/>
<path d="M48.1705 21.107C48.2971 21.107 48.3839 21.1451 48.4446 21.2259C48.5142 21.3186 48.5558 21.46 48.5689 21.6472L48.5772 21.7773L49.4031 21.7197L49.3978 21.5931C49.3782 21.1593 49.2664 20.8052 49.0648 20.539C48.8543 20.2603 48.5546 20.1189 48.1746 20.1189C47.7982 20.1189 47.5051 20.2621 47.3041 20.5449C47.1132 20.8147 47.0169 21.1546 47.0169 21.5563C47.0169 21.7862 47.049 21.9913 47.1132 22.1654C47.1786 22.3436 47.2708 22.491 47.3873 22.6051C47.4974 22.712 47.6638 22.8398 47.8964 22.9967C48.1723 23.1815 48.2519 23.2611 48.2769 23.2944C48.3298 23.3633 48.3554 23.4465 48.3554 23.5499C48.3554 23.6729 48.3227 23.7733 48.2543 23.8589C48.1931 23.935 48.0884 23.9718 47.9344 23.9718C47.6894 23.9718 47.608 23.8749 47.5675 23.8007C47.5431 23.7573 47.5009 23.6319 47.4914 23.2962L47.4878 23.1589L46.6678 23.2255L46.6655 23.3437C46.6607 23.6557 46.6976 23.9361 46.7767 24.1786C46.8599 24.4341 47.0056 24.6373 47.2101 24.7817C47.4135 24.9267 47.6561 24.9998 47.9308 24.9998C48.3328 24.9998 48.6515 24.8405 48.8781 24.5262C49.0945 24.2261 49.2045 23.8607 49.2045 23.4406C49.2045 23.0965 49.129 22.8089 48.981 22.5855C48.8793 22.431 48.6593 22.2426 48.3102 22.0091C48.0521 21.8356 47.9522 21.7387 47.913 21.687C47.8666 21.627 47.844 21.5492 47.844 21.4499C47.844 21.3424 47.8696 21.2574 47.9219 21.1914C47.9659 21.1356 48.0498 21.107 48.1705 21.107Z" fill="#1D3378"/>
<path d="M51.0475 22.0091C50.7888 21.8356 50.6895 21.7387 50.6503 21.687C50.6033 21.627 50.5807 21.5492 50.5807 21.4499C50.5807 21.3424 50.6063 21.258 50.6586 21.1914C50.7026 21.1356 50.7865 21.107 50.9078 21.107C51.0338 21.107 51.1212 21.1451 51.1813 21.2259C51.2514 21.3186 51.2931 21.46 51.3056 21.6472L51.3145 21.7773L52.1404 21.7197L52.1344 21.5931C52.1148 21.1593 52.003 20.8052 51.8021 20.539C51.5916 20.2603 51.2919 20.1189 50.9119 20.1189C50.5349 20.1189 50.2424 20.2621 50.0414 20.5455C49.8499 20.8147 49.7536 21.1546 49.7536 21.5563C49.7536 21.7862 49.7857 21.9913 49.8499 22.1654C49.9154 22.3436 50.0081 22.491 50.1247 22.6051C50.2341 22.712 50.4006 22.8398 50.6331 22.9967C50.909 23.1815 50.9892 23.2611 51.0136 23.2944C51.0671 23.3633 51.0921 23.4465 51.0921 23.5499C51.0921 23.6723 51.0594 23.7733 50.991 23.8589C50.9304 23.935 50.8257 23.9718 50.6711 23.9718C50.4267 23.9718 50.3453 23.8749 50.3048 23.8007C50.2804 23.7573 50.2382 23.6319 50.2287 23.2962L50.2246 23.1589L49.4052 23.2255L49.4028 23.3437C49.3975 23.6557 49.4349 23.9361 49.514 24.1786C49.5972 24.4341 49.7423 24.6373 49.9469 24.7817C50.1508 24.9267 50.3934 24.9998 50.6675 24.9998C51.0695 24.9998 51.3882 24.8405 51.6148 24.5262C51.8318 24.2261 51.9418 23.8607 51.9418 23.4406C51.9418 23.0965 51.8663 22.8089 51.7176 22.5855C51.6159 22.431 51.3965 22.2426 51.0475 22.0091Z" fill="#1D3378"/>
</svg>
