<svg width="126" height="29" viewBox="0 0 126 29" fill="none" xmlns="http://www.w3.org/2000/svg">
<path fill-rule="evenodd" clip-rule="evenodd" d="M48.5016 8.02303H59.197L53.9335 26.9248H61.336L66.5993 8.02303H75.2355L77.2237 5.77261H70.2296L71.1527 4.72299H78.1645L79.1586 3.60223H71.9781L72.9012 2.11677H80.4722L81.6261 0.818115H51.7945L48.5016 8.02303Z" fill="#E62129"/>
<path fill-rule="evenodd" clip-rule="evenodd" d="M20.8817 27.1869H0.635986L3.74253 22.1523L15.3876 22.2235L20.6864 1.01794H27.4409L22.0356 22.2235L20.8817 27.1869Z" fill="#E62129"/>
<path fill-rule="evenodd" clip-rule="evenodd" d="M52.3475 26.9124H45.7794L44.6521 25.6582C41.519 27.535 37.7734 28.4868 34.0455 27.9353C29.4567 27.028 26.6963 24.235 27.0869 19.6719C27.6994 16.4875 29.0929 13.8279 31.1521 11.622C28.8532 7.00549 29.6964 3.83888 31.1698 0.96582H47.0487L44.3948 7.03217C42.3356 2.86934 35.8207 3.91894 36.0781 9.48718L43.8534 18.1063C44.5191 17.2881 45.1936 15.4201 45.8593 13.3031L50.741 15.7403C50.0042 17.9819 49.1611 20.2145 48.0072 22.0824L48.0249 22.1002L52.3475 26.9124ZM40.7734 21.3264L34.7556 15.0554C28.5071 19.5918 34.8444 26.9924 40.7734 21.3264Z" fill="#E62129"/>
<path fill-rule="evenodd" clip-rule="evenodd" d="M77.9889 17.0312C77.9889 17.0668 77.9889 17.1202 77.98 17.2003C77.9711 17.2714 77.9622 17.3604 77.9445 17.4582C77.9267 17.5471 77.909 17.645 77.8823 17.7517C77.8557 17.8585 77.8291 17.9474 77.7847 18.0364C77.7492 18.1164 77.7048 18.1876 77.6516 18.2498C77.5984 18.3032 77.5362 18.3299 77.4741 18.3299H73.9326L73.4445 20.7582H76.4533C76.5243 20.7582 76.5776 20.7849 76.6042 20.8294C76.6397 20.8827 76.6575 20.9539 76.6575 21.0429C76.6575 21.0873 76.6486 21.1407 76.6486 21.2119C76.6397 21.2831 76.622 21.372 76.6042 21.4698C76.5954 21.5587 76.5776 21.6566 76.551 21.7545C76.5243 21.8523 76.4888 21.9413 76.4533 22.0213C76.4178 22.1013 76.3645 22.1725 76.3203 22.2259C76.267 22.2704 76.2137 22.297 76.1516 22.297H73.1426L72.5835 25.099H76.1693C76.2315 25.099 76.2847 25.1257 76.3114 25.1879C76.338 25.2324 76.3558 25.3125 76.3558 25.4191C76.3558 25.4547 76.3558 25.5081 76.3469 25.5882C76.3469 25.6682 76.3291 25.7572 76.3114 25.8462C76.2936 25.944 76.2759 26.0419 76.2492 26.1396C76.2226 26.2375 76.196 26.3265 76.1516 26.4154C76.1161 26.4955 76.0717 26.5667 76.0184 26.62C75.9652 26.6645 75.9119 26.6912 75.8498 26.6912H70.8527C70.7728 26.6912 70.7018 26.6823 70.6308 26.6556C70.5598 26.6378 70.5065 26.5933 70.471 26.54C70.4266 26.4866 70.3911 26.4243 70.3823 26.3442C70.3646 26.2642 70.3646 26.1663 70.3823 26.0508L72.1131 17.3782C72.1575 17.1558 72.2551 16.9868 72.3971 16.8889C72.5302 16.791 72.69 16.7378 72.8587 16.7378H77.7936C77.9267 16.7378 77.9889 16.8355 77.9889 17.0312ZM83.6606 21.5587L85.1871 25.9084C85.2404 26.0952 85.2759 26.2375 85.2848 26.3531C85.2937 26.4599 85.2582 26.5489 85.1871 26.6022C85.1161 26.6645 85.0007 26.7001 84.841 26.7179C84.6724 26.7356 84.4504 26.7356 84.1576 26.7356C83.9445 26.7356 83.7848 26.7356 83.6606 26.7268C83.5363 26.7179 83.4475 26.7001 83.3765 26.6734C83.3055 26.6467 83.2611 26.62 83.2345 26.5755C83.199 26.54 83.1812 26.4866 83.1546 26.4243L81.9475 22.804L79.4001 26.4243C79.3557 26.4866 79.3114 26.54 79.2581 26.5755C79.2137 26.62 79.1427 26.6467 79.0539 26.6734C78.9652 26.7001 78.841 26.7179 78.6989 26.7268C78.548 26.7356 78.3616 26.7356 78.1309 26.7356C77.8646 26.7356 77.6516 26.7356 77.5007 26.7179C77.3498 26.7001 77.2433 26.6645 77.1989 26.6111C77.1545 26.5578 77.1545 26.4688 77.2078 26.362C77.2522 26.2553 77.3409 26.1129 77.4741 25.9351L80.7404 21.5499L79.3557 17.5026C79.3025 17.3248 79.267 17.1825 79.2581 17.0668C79.2492 16.9601 79.2847 16.88 79.3557 16.8266C79.4179 16.7644 79.5333 16.7289 79.7019 16.72C79.8616 16.7022 80.0925 16.6933 80.3764 16.6933C80.5895 16.6933 80.767 16.7022 80.8913 16.7111C81.0155 16.72 81.1131 16.7378 81.1841 16.7644C81.2552 16.791 81.3084 16.8266 81.335 16.8711C81.3706 16.9156 81.3972 16.9779 81.4149 17.049L82.4711 20.2957L84.7966 17.0045C84.8322 16.9512 84.8765 16.8978 84.9298 16.8533C84.9742 16.8177 85.0362 16.7821 85.1161 16.7555C85.2049 16.7378 85.3114 16.72 85.4446 16.7111C85.5777 16.7022 85.7552 16.6933 85.9771 16.6933C86.2612 16.6933 86.483 16.7022 86.6428 16.72C86.8026 16.7289 86.9002 16.7644 86.9535 16.8266C86.9978 16.88 86.9978 16.9601 86.9535 17.0668C86.9091 17.1825 86.8203 17.3248 86.6961 17.5026L83.6606 21.5587ZM94.8176 19.1838C94.8176 19.4684 94.7821 19.7709 94.72 20.0822C94.6578 20.3935 94.5513 20.7049 94.4093 20.9984C94.2673 21.3008 94.0808 21.5854 93.85 21.8523C93.6192 22.1191 93.344 22.3593 93.0156 22.5728C92.6871 22.7773 92.2966 22.9464 91.8616 23.062C91.4266 23.1866 90.9206 23.2399 90.3347 23.2399H89.2967L88.6576 26.4243C88.6487 26.4777 88.6221 26.5222 88.5866 26.5667C88.5422 26.6022 88.4801 26.6378 88.3913 26.6645C88.3026 26.6912 88.1961 26.709 88.0629 26.7179C87.9298 26.7356 87.7611 26.7356 87.5748 26.7356C87.3795 26.7356 87.2286 26.7356 87.0954 26.7179C86.9712 26.709 86.8736 26.6912 86.8026 26.6645C86.7316 26.6378 86.6872 26.6022 86.6605 26.5667C86.6339 26.5311 86.625 26.4777 86.6428 26.4243L88.4357 17.4671C88.4801 17.227 88.5777 17.0401 88.7375 16.9245C88.8884 16.7999 89.0747 16.7378 89.2967 16.7378H91.471C91.7373 16.7378 91.977 16.7466 92.1812 16.7644C92.3942 16.7821 92.5984 16.8177 92.8025 16.8533C93.1132 16.9156 93.3973 17.0134 93.6459 17.138C93.8944 17.2714 94.0986 17.4315 94.2761 17.6183C94.4537 17.814 94.5868 18.0364 94.6756 18.3032C94.7644 18.5612 94.8176 18.8547 94.8176 19.1838ZM92.696 19.4062C92.696 19.166 92.6339 18.9525 92.5185 18.7657C92.4031 18.5879 92.2167 18.4633 91.977 18.3922C91.8616 18.3566 91.7462 18.3299 91.613 18.321C91.4799 18.3032 91.329 18.3032 91.1692 18.3032H90.2815L89.6077 21.6833H90.53C90.823 21.6833 91.0715 21.6477 91.2757 21.5765C91.4888 21.5143 91.6663 21.4164 91.8261 21.3097C91.9859 21.1941 92.119 21.0607 92.2255 20.9094C92.3409 20.7493 92.4297 20.5892 92.5007 20.4202C92.5629 20.2512 92.6161 20.0822 92.6428 19.9043C92.6783 19.7353 92.696 19.5663 92.696 19.4062ZM103.302 18.9081C103.302 19.2461 103.258 19.5663 103.17 19.8865C103.081 20.2156 102.939 20.5181 102.744 20.8027C102.549 21.0962 102.291 21.3542 101.989 21.5854C101.679 21.8167 101.297 22.0036 100.853 22.1369C101.102 22.2348 101.306 22.4305 101.474 22.7152C101.643 23.0086 101.785 23.4001 101.892 23.9071L102.273 25.9262C102.3 26.0419 102.318 26.1396 102.336 26.2286C102.353 26.3176 102.362 26.3976 102.362 26.4599C102.362 26.5044 102.344 26.5489 102.309 26.5844C102.273 26.62 102.22 26.6467 102.123 26.6734C102.034 26.7001 101.918 26.7179 101.767 26.7268C101.617 26.7356 101.421 26.7356 101.19 26.7356C100.977 26.7356 100.8 26.7356 100.676 26.7179C100.551 26.709 100.445 26.6912 100.374 26.6556C100.303 26.6289 100.258 26.5933 100.241 26.5489C100.214 26.5044 100.196 26.451 100.187 26.3887L99.8056 24.1828C99.7701 23.9249 99.708 23.7025 99.6369 23.5067C99.5748 23.3111 99.4772 23.151 99.3706 23.0175C99.2641 22.8841 99.131 22.7862 98.9801 22.7241C98.8203 22.6618 98.6339 22.6262 98.4119 22.6262H97.7728L97.0182 26.4243C97.0182 26.4777 96.9916 26.5222 96.9472 26.5667C96.9028 26.6022 96.8407 26.6378 96.7608 26.6645C96.672 26.6912 96.5664 26.709 96.4332 26.7179C96.3001 26.7356 96.1314 26.7356 95.9361 26.7356C95.7408 26.7356 95.5899 26.7356 95.4657 26.7179C95.3325 26.709 95.2348 26.6912 95.1638 26.6645C95.0928 26.6378 95.0484 26.6022 95.0218 26.5667C94.9952 26.5311 94.9863 26.4777 95.004 26.4243L96.8141 17.3782C96.8584 17.1558 96.9472 16.9868 97.0804 16.8889C97.2224 16.791 97.3911 16.7378 97.5775 16.7378H100.241C100.711 16.7378 101.128 16.7821 101.51 16.8711C101.883 16.9601 102.202 17.0935 102.469 17.2714C102.744 17.4493 102.948 17.6806 103.09 17.9474C103.232 18.2231 103.302 18.5434 103.302 18.9081ZM101.137 19.2906C101.137 19.1482 101.111 19.0148 101.057 18.8903C101.013 18.7657 100.933 18.6591 100.826 18.5612C100.72 18.4722 100.578 18.41 100.409 18.3566C100.232 18.3032 100.028 18.2854 99.7879 18.2854H98.6427L98.0746 21.114H99.0422C99.4239 21.114 99.7524 21.0607 100.019 20.9539C100.285 20.8382 100.498 20.696 100.667 20.5181C100.826 20.3491 100.951 20.1533 101.022 19.9399C101.102 19.7264 101.137 19.5129 101.137 19.2906ZM111.521 17.0312C111.521 17.0668 111.521 17.1202 111.513 17.2003C111.504 17.2714 111.486 17.3604 111.477 17.4582C111.459 17.5471 111.442 17.645 111.415 17.7517C111.388 17.8585 111.353 17.9474 111.317 18.0364C111.282 18.1164 111.229 18.1876 111.175 18.2498C111.122 18.3032 111.069 18.3299 111.007 18.3299H107.466L106.977 20.7582H109.986C110.057 20.7582 110.11 20.7849 110.137 20.8294C110.172 20.8827 110.181 20.9539 110.181 21.0429C110.181 21.0873 110.181 21.1407 110.172 21.2119C110.163 21.2831 110.154 21.372 110.137 21.4698C110.128 21.5587 110.101 21.6566 110.075 21.7545C110.048 21.8523 110.021 21.9413 109.977 22.0213C109.941 22.1013 109.897 22.1725 109.845 22.2259C109.791 22.2704 109.738 22.297 109.676 22.297H106.667L106.107 25.099H109.703C109.765 25.099 109.809 25.1257 109.836 25.1879C109.871 25.2324 109.888 25.3125 109.888 25.4191C109.888 25.4547 109.88 25.5081 109.88 25.5882C109.871 25.6682 109.862 25.7572 109.845 25.8462C109.827 25.944 109.809 26.0419 109.782 26.1396C109.756 26.2375 109.72 26.3265 109.685 26.4154C109.649 26.4955 109.605 26.5667 109.552 26.62C109.498 26.6645 109.445 26.6912 109.374 26.6912H104.385C104.305 26.6912 104.225 26.6823 104.163 26.6556C104.092 26.6378 104.039 26.5933 103.995 26.54C103.95 26.4866 103.924 26.4243 103.906 26.3442C103.888 26.2642 103.897 26.1663 103.915 26.0508L105.646 17.3782C105.69 17.1558 105.779 16.9868 105.921 16.8889C106.063 16.791 106.223 16.7378 106.391 16.7378H111.317C111.45 16.7378 111.521 16.8355 111.521 17.0312ZM118.312 17.5026C118.312 17.5471 118.303 17.6094 118.294 17.6895C118.285 17.7606 118.276 17.8496 118.258 17.9386C118.249 18.0275 118.223 18.1253 118.205 18.2231C118.178 18.3121 118.152 18.4011 118.116 18.4811C118.081 18.5612 118.045 18.6235 118.001 18.6768C117.956 18.7302 117.912 18.7568 117.868 18.7568C117.797 18.7568 117.708 18.7213 117.601 18.6591C117.495 18.5968 117.362 18.5256 117.202 18.4455C117.042 18.3744 116.865 18.3032 116.652 18.2409C116.448 18.1698 116.209 18.1431 115.942 18.1431C115.667 18.1431 115.436 18.1787 115.241 18.2587C115.055 18.3299 114.895 18.4366 114.77 18.5612C114.646 18.6857 114.557 18.828 114.504 18.9881C114.442 19.1394 114.415 19.2995 114.415 19.4595C114.415 19.6374 114.46 19.8065 114.549 19.9488C114.646 20.0911 114.762 20.2156 114.921 20.3402C115.072 20.4558 115.25 20.5715 115.445 20.6871C115.64 20.8027 115.845 20.9183 116.049 21.0429C116.244 21.1585 116.448 21.3008 116.643 21.4431C116.838 21.5943 117.015 21.7545 117.175 21.9502C117.326 22.1458 117.45 22.3593 117.539 22.6084C117.628 22.8574 117.681 23.151 117.681 23.4712C117.681 23.9515 117.584 24.3963 117.388 24.8143C117.193 25.2235 116.918 25.5793 116.563 25.8906C116.2 26.193 115.774 26.4332 115.268 26.6022C114.762 26.7801 114.202 26.869 113.59 26.869C113.253 26.869 112.951 26.8423 112.667 26.7801C112.391 26.7356 112.134 26.6645 111.921 26.5844C111.708 26.5133 111.521 26.4332 111.379 26.3442C111.229 26.2553 111.113 26.1752 111.042 26.1041C110.971 26.0241 110.936 25.9084 110.936 25.7572C110.936 25.7127 110.944 25.6504 110.953 25.5704C110.962 25.4814 110.98 25.3925 110.998 25.3036C111.016 25.2057 111.033 25.1079 111.06 25.01C111.087 24.9121 111.113 24.8143 111.149 24.7343C111.184 24.6542 111.229 24.5831 111.273 24.5297C111.317 24.4852 111.362 24.4585 111.406 24.4585C111.495 24.4585 111.601 24.4941 111.717 24.5742C111.841 24.6542 111.992 24.7431 112.17 24.841C112.347 24.9299 112.56 25.0278 112.809 25.1079C113.048 25.1879 113.341 25.2324 113.687 25.2324C113.989 25.2324 114.256 25.1879 114.486 25.1168C114.717 25.0367 114.904 24.9299 115.055 24.7965C115.214 24.6631 115.33 24.5119 115.41 24.334C115.49 24.165 115.525 23.9693 115.525 23.7647C115.525 23.569 115.481 23.4001 115.392 23.2666C115.294 23.1154 115.179 22.9908 115.028 22.8663C114.877 22.7418 114.699 22.6262 114.513 22.5194C114.318 22.4127 114.122 22.3059 113.927 22.1814C113.723 22.0569 113.528 21.9235 113.341 21.7812C113.146 21.6388 112.977 21.4698 112.826 21.2742C112.676 21.0784 112.551 20.8649 112.462 20.607C112.365 20.3579 112.32 20.0645 112.32 19.7353C112.32 19.2728 112.409 18.8458 112.596 18.4544C112.782 18.072 113.039 17.7339 113.359 17.4582C113.687 17.1736 114.078 16.9601 114.531 16.7999C114.984 16.6488 115.49 16.5687 116.031 16.5687C116.288 16.5687 116.536 16.5865 116.767 16.6221C116.998 16.6666 117.211 16.7111 117.397 16.7732C117.584 16.8266 117.752 16.8978 117.885 16.969C118.019 17.0401 118.107 17.1024 118.161 17.1469C118.214 17.2003 118.249 17.2536 118.276 17.2981C118.294 17.3604 118.312 17.4226 118.312 17.5026ZM125.616 17.5026C125.616 17.5471 125.616 17.6094 125.608 17.6895C125.599 17.7606 125.59 17.8496 125.572 17.9386C125.554 18.0275 125.537 18.1253 125.51 18.2231C125.492 18.3121 125.457 18.4011 125.43 18.4811C125.394 18.5612 125.35 18.6235 125.315 18.6768C125.27 18.7302 125.226 18.7568 125.181 18.7568C125.11 18.7568 125.022 18.7213 124.906 18.6591C124.8 18.5968 124.667 18.5256 124.516 18.4455C124.356 18.3744 124.178 18.3032 123.965 18.2409C123.752 18.1698 123.521 18.1431 123.255 18.1431C122.981 18.1431 122.741 18.1787 122.555 18.2587C122.359 18.3299 122.209 18.4366 122.084 18.5612C121.96 18.6857 121.871 18.828 121.809 18.9881C121.756 19.1394 121.72 19.2995 121.72 19.4595C121.72 19.6374 121.774 19.8065 121.862 19.9488C121.951 20.0911 122.075 20.2156 122.235 20.3402C122.386 20.4558 122.564 20.5715 122.759 20.6871C122.954 20.8027 123.158 20.9183 123.353 21.0429C123.557 21.1585 123.761 21.3008 123.956 21.4431C124.152 21.5943 124.329 21.7545 124.48 21.9502C124.64 22.1458 124.764 22.3593 124.853 22.6084C124.942 22.8574 124.995 23.151 124.995 23.4712C124.995 23.9515 124.897 24.3963 124.702 24.8143C124.507 25.2235 124.232 25.5793 123.877 25.8906C123.513 26.193 123.087 26.4332 122.581 26.6022C122.075 26.7801 121.516 26.869 120.895 26.869C120.566 26.869 120.264 26.8423 119.98 26.7801C119.696 26.7356 119.448 26.6645 119.235 26.5844C119.022 26.5133 118.835 26.4332 118.684 26.3442C118.542 26.2553 118.427 26.1752 118.356 26.1041C118.285 26.0241 118.249 25.9084 118.249 25.7572C118.249 25.7127 118.258 25.6504 118.267 25.5704C118.276 25.4814 118.294 25.3925 118.312 25.3036C118.329 25.2057 118.347 25.1079 118.374 25.01C118.4 24.9121 118.427 24.8143 118.462 24.7343C118.498 24.6542 118.542 24.5831 118.578 24.5297C118.622 24.4852 118.667 24.4585 118.72 24.4585C118.809 24.4585 118.906 24.4941 119.031 24.5742C119.155 24.6542 119.297 24.7431 119.483 24.841C119.661 24.9299 119.874 25.0278 120.122 25.1079C120.362 25.1879 120.655 25.2324 121.001 25.2324C121.303 25.2324 121.569 25.1879 121.8 25.1168C122.022 25.0367 122.217 24.9299 122.368 24.7965C122.528 24.6631 122.643 24.5119 122.715 24.334C122.803 24.165 122.839 23.9693 122.839 23.7647C122.839 23.569 122.794 23.4001 122.697 23.2666C122.608 23.1154 122.493 22.9908 122.333 22.8663C122.191 22.7418 122.013 22.6262 121.827 22.5194C121.632 22.4127 121.436 22.3059 121.232 22.1814C121.037 22.0569 120.841 21.9235 120.646 21.7812C120.46 21.6388 120.282 21.4698 120.14 21.2742C119.98 21.0784 119.865 20.8649 119.776 20.607C119.679 20.3579 119.634 20.0645 119.634 19.7353C119.634 19.2728 119.723 18.8458 119.909 18.4544C120.096 18.072 120.344 17.7339 120.673 17.4582C121.001 17.1736 121.392 16.9601 121.845 16.7999C122.297 16.6488 122.803 16.5687 123.344 16.5687C123.601 16.5687 123.85 16.5865 124.081 16.6221C124.311 16.6666 124.516 16.7111 124.711 16.7732C124.897 16.8266 125.066 16.8978 125.199 16.969C125.332 17.0401 125.421 17.1024 125.474 17.1469C125.528 17.2003 125.563 17.2536 125.59 17.2981C125.608 17.3604 125.616 17.4226 125.616 17.5026Z" fill="#E62129"/>
</svg>
